<?xml version="1.0" encoding="UTF-8"?>
<svg xmlns="http://www.w3.org/2000/svg" viewBox="0 0 1440 1000" width="100%" height="100%" font-family="system-ui, -apple-system, BlinkMacSystemFont, 'Segoe UI', Roboto, sans-serif">
  <rect width="1440" height="1000" fill="#090d16" rx="14" />
  <text x="30" y="38" fill="#f8fafc" font-size="22" font-weight="700">Global Tech Market Flow &amp; Revenue Distribution</text>
  <text x="30" y="58" fill="#94a3b8" font-size="13">Estimated 2025–2026 Annualized Revenue Breakdown (~$5.91 Trillion Total Market)</text>
  <text x="30" y="72" fill="#38bdf8" font-size="12" font-weight="700" letter-spacing="1.2">GLOBAL MARKET</text>
  <text x="540" y="72" fill="#38bdf8" font-size="12" font-weight="700" letter-spacing="1.2" text-anchor="end">TECH SECTORS</text>
  <text x="1212" y="72" fill="#38bdf8" font-size="12" font-weight="700" letter-spacing="1.2">MARKET LEADERS &amp; ECOSYSTEMS</text>
  <g class="ribbons">
    <path d="M 50.0 210.0 C 285.2 210.0, 304.8 90.0, 540.0 90.0 L 540.0 299.8 C 304.8 299.8, 285.2 419.8, 50.0 419.8 Z" fill="#6366f1" opacity="0.32"><title>B2C E-commerce: ~$2,000.0B</title></path>
    <path d="M 50.0 419.8 C 285.2 419.8, 304.8 311.8, 540.0 311.8 L 540.0 381.3 C 304.8 381.3, 285.2 489.3, 50.0 489.3 Z" fill="#8b5cf6" opacity="0.32"><title>Digital Advertising: ~$662.0B</title></path>
    <path d="M 50.0 489.3 C 285.2 489.3, 304.8 393.3, 540.0 393.3 L 540.0 447.8 C 304.8 447.8, 285.2 543.8, 50.0 543.8 Z" fill="#06b6d4" opacity="0.32"><title>Smartphones: ~$520.0B</title></path>
    <path d="M 50.0 543.8 C 285.2 543.8, 304.8 459.8, 540.0 459.8 L 540.0 512.3 C 304.8 512.3, 285.2 596.3, 50.0 596.3 Z" fill="#84cc16" opacity="0.32"><title>B2B E-commerce: ~$500.0B</title></path>
    <path d="M 50.0 596.3 C 285.2 596.3, 304.8 524.3, 540.0 524.3 L 540.0 575.5 C 304.8 575.5, 285.2 647.5, 50.0 647.5 Z" fill="#f97316" opacity="0.32"><title>SaaS: ~$488.0B</title></path>
    <path d="M 50.0 647.5 C 285.2 647.5, 304.8 587.5, 540.0 587.5 L 540.0 636.8 C 304.8 636.8, 285.2 696.8, 50.0 696.8 Z" fill="#eab308" opacity="0.32"><title>General Semiconductors: ~$470.0B</title></path>
    <path d="M 50.0 696.8 C 285.2 696.8, 304.8 648.8, 540.0 648.8 L 540.0 691.8 C 304.8 691.8, 285.2 739.8, 50.0 739.8 Z" fill="#10b981" opacity="0.32"><title>Cloud Infrastructure: ~$410.0B</title></path>
    <path d="M 50.0 739.8 C 285.2 739.8, 304.8 703.8, 540.0 703.8 L 540.0 727.4 C 304.8 727.4, 285.2 763.4, 50.0 763.4 Z" fill="#f59e0b" opacity="0.32"><title>Gaming: ~$225.0B</title></path>
    <path d="M 50.0 763.4 C 285.2 763.4, 304.8 739.4, 540.0 739.4 L 540.0 762.5 C 304.8 762.5, 285.2 786.5, 50.0 786.5 Z" fill="#ec4899" opacity="0.32"><title>PC Hardware: ~$220.0B</title></path>
    <path d="M 50.0 786.5 C 285.2 786.5, 304.8 774.5, 540.0 774.5 L 540.0 788.1 C 304.8 788.1, 285.2 800.1, 50.0 800.1 Z" fill="#a855f7" opacity="0.32"><title>AI Chips &amp; GPUs: ~$130.0B</title></path>
    <path d="M 50.0 800.1 C 285.2 800.1, 304.8 800.1, 540.0 800.1 L 540.0 812.7 C 304.8 812.7, 285.2 812.7, 50.0 812.7 Z" fill="#14b8a6" opacity="0.32"><title>Streaming Video: ~$120.0B</title></path>
    <path d="M 50.0 812.7 C 285.2 812.7, 304.8 824.7, 540.0 824.7 L 540.0 831.5 C 304.8 831.5, 285.2 819.5, 50.0 819.5 Z" fill="#0ea5e9" opacity="0.32"><title>Physical AI &amp; Robotics: ~$65.0B</title></path>
    <path d="M 50.0 819.5 C 285.2 819.5, 304.8 843.5, 540.0 843.5 L 540.0 849.8 C 304.8 849.8, 285.2 825.8, 50.0 825.8 Z" fill="#38bdf8" opacity="0.32"><title>Generative AI &amp; Foundation Models: ~$60.0B</title></path>
    <path d="M 50.0 825.8 C 285.2 825.8, 304.8 861.8, 540.0 861.8 L 540.0 865.8 C 304.8 865.8, 285.2 829.8, 50.0 829.8 Z" fill="#64748b" opacity="0.32"><title>Web3 &amp; Blockchain Infrastructure: ~$38.0B</title></path>
    <path d="M 50.0 829.8 C 285.2 829.8, 304.8 877.8, 540.0 877.8 L 540.0 878.0 C 304.8 878.0, 285.2 830.0, 50.0 830.0 Z" fill="#d946ef" opacity="0.32"><title>Quantum Computing: ~$1.8B</title></path>
    <path d="M 560.0 90.0 C 857.6 90.0, 882.4 90.0, 1180.0 90.0 L 1180.0 133.0 C 882.4 133.0, 857.6 133.0, 560.0 133.0 Z" fill="#6366f1" opacity="0.38"><title>B2C E-commerce -&gt; Alibaba Group: ~$410.0B</title></path>
    <path d="M 560.0 133.0 C 857.6 133.0, 882.4 148.6, 1180.0 148.6 L 1180.0 174.9 C 882.4 174.9, 857.6 159.2, 560.0 159.2 Z" fill="#6366f1" opacity="0.38"><title>B2C E-commerce -&gt; Amazon: ~$250.0B</title></path>
    <path d="M 560.0 159.2 C 857.6 159.2, 882.4 276.1, 1180.0 276.1 L 1180.0 298.1 C 882.4 298.1, 857.6 181.3, 560.0 181.3 Z" fill="#6366f1" opacity="0.38"><title>B2C E-commerce -&gt; PDD Holdings: ~$210.0B</title></path>
    <path d="M 560.0 181.3 C 857.6 181.3, 882.4 336.7, 1180.0 336.7 L 1180.0 354.6 C 882.4 354.6, 857.6 199.1, 560.0 199.1 Z" fill="#6366f1" opacity="0.38"><title>B2C E-commerce -&gt; JD.com: ~$170.0B</title></path>
    <path d="M 560.0 199.1 C 857.6 199.1, 882.4 391.9, 1180.0 391.9 L 1180.0 403.5 C 882.4 403.5, 857.6 210.6, 560.0 210.6 Z" fill="#6366f1" opacity="0.38"><title>B2C E-commerce -&gt; ByteDance: ~$110.0B</title></path>
    <path d="M 560.0 210.6 C 857.6 210.6, 882.4 466.4, 1180.0 466.4 L 1180.0 475.8 C 882.4 475.8, 857.6 220.1, 560.0 220.1 Z" fill="#6366f1" opacity="0.38"><title>B2C E-commerce -&gt; Meituan: ~$90.0B</title></path>
    <path d="M 560.0 220.1 C 857.6 220.1, 882.4 485.8, 1180.0 485.8 L 1180.0 494.2 C 882.4 494.2, 857.6 228.5, 560.0 228.5 Z" fill="#6366f1" opacity="0.38"><title>B2C E-commerce -&gt; Shopify: ~$80.0B</title></path>
    <path d="M 560.0 228.5 C 857.6 228.5, 882.4 661.1, 1180.0 661.1 L 1180.0 665.3 C 882.4 665.3, 857.6 232.7, 560.0 232.7 Z" fill="#6366f1" opacity="0.38"><title>B2C E-commerce -&gt; Walmart Online: ~$40.0B</title></path>
    <path d="M 560.0 232.7 C 857.6 232.7, 882.4 675.3, 1180.0 675.3 L 1180.0 742.4 C 882.4 742.4, 857.6 299.8, 560.0 299.8 Z" fill="#6366f1" opacity="0.38"><title>B2C E-commerce -&gt; Other Industry Players: ~$640.0B</title></path>
    <path d="M 560.0 311.8 C 857.6 311.8, 882.4 133.0, 1180.0 133.0 L 1180.0 136.1 C 882.4 136.1, 857.6 314.9, 560.0 314.9 Z" fill="#8b5cf6" opacity="0.38"><title>Digital Advertising -&gt; Alibaba Group: ~$29.8B</title></path>
    <path d="M 560.0 314.9 C 857.6 314.9, 882.4 174.9, 1180.0 174.9 L 1180.0 181.1 C 882.4 181.1, 857.6 321.2, 560.0 321.2 Z" fill="#8b5cf6" opacity="0.38"><title>Digital Advertising -&gt; Amazon: ~$59.6B</title></path>
    <path d="M 560.0 321.2 C 857.6 321.2, 882.4 205.8, 1180.0 205.8 L 1180.0 224.1 C 882.4 224.1, 857.6 339.5, 560.0 339.5 Z" fill="#8b5cf6" opacity="0.38"><title>Digital Advertising -&gt; Alphabet (Google): ~$174.8B</title></path>
    <path d="M 560.0 339.5 C 857.6 339.5, 882.4 243.6, 1180.0 243.6 L 1180.0 245.1 C 882.4 245.1, 857.6 341.0, 560.0 341.0 Z" fill="#8b5cf6" opacity="0.38"><title>Digital Advertising -&gt; Microsoft: ~$13.9B</title></path>
    <path d="M 560.0 341.0 C 857.6 341.0, 882.4 308.1, 1180.0 308.1 L 1180.0 326.7 C 882.4 326.7, 857.6 359.6, 560.0 359.6 Z" fill="#8b5cf6" opacity="0.38"><title>Digital Advertising -&gt; Meta: ~$177.4B</title></path>
    <path d="M 560.0 359.6 C 857.6 359.6, 882.4 403.5, 1180.0 403.5 L 1180.0 408.9 C 882.4 408.9, 857.6 365.1, 560.0 365.1 Z" fill="#8b5cf6" opacity="0.38"><title>Digital Advertising -&gt; ByteDance: ~$52.3B</title></path>
    <path d="M 560.0 365.1 C 857.6 365.1, 882.4 418.9, 1180.0 418.9 L 1180.0 420.0 C 882.4 420.0, 857.6 366.2, 560.0 366.2 Z" fill="#8b5cf6" opacity="0.38"><title>Digital Advertising -&gt; Apple: ~$10.6B</title></path>
    <path d="M 560.0 366.2 C 857.6 366.2, 882.4 539.8, 1180.0 539.8 L 1180.0 541.5 C 882.4 541.5, 857.6 367.9, 560.0 367.9 Z" fill="#8b5cf6" opacity="0.38"><title>Digital Advertising -&gt; Tencent: ~$16.6B</title></path>
    <path d="M 560.0 367.9 C 857.6 367.9, 882.4 742.4, 1180.0 742.4 L 1180.0 755.8 C 882.4 755.8, 857.6 381.3, 560.0 381.3 Z" fill="#8b5cf6" opacity="0.38"><title>Digital Advertising -&gt; Other Industry Players: ~$127.1B</title></path>
    <path d="M 560.0 393.3 C 857.6 393.3, 882.4 364.6, 1180.0 364.6 L 1180.0 374.9 C 882.4 374.9, 857.6 403.6, 560.0 403.6 Z" fill="#06b6d4" opacity="0.38"><title>Smartphones -&gt; Samsung: ~$98.8B</title></path>
    <path d="M 560.0 403.6 C 857.6 403.6, 882.4 420.0, 1180.0 420.0 L 1180.0 431.0 C 882.4 431.0, 857.6 414.5, 560.0 414.5 Z" fill="#06b6d4" opacity="0.38"><title>Smartphones -&gt; Apple: ~$104.0B</title></path>
    <path d="M 560.0 414.5 C 857.6 414.5, 882.4 505.0, 1180.0 505.0 L 1180.0 512.6 C 882.4 512.6, 857.6 422.2, 560.0 422.2 Z" fill="#06b6d4" opacity="0.38"><title>Smartphones -&gt; Xiaomi: ~$72.8B</title></path>
    <path d="M 560.0 422.2 C 857.6 422.2, 882.4 522.6, 1180.0 522.6 L 1180.0 524.2 C 882.4 524.2, 857.6 423.8, 560.0 423.8 Z" fill="#06b6d4" opacity="0.38"><title>Smartphones -&gt; Lenovo: ~$15.6B</title></path>
    <path d="M 560.0 423.8 C 857.6 423.8, 882.4 588.3, 1180.0 588.3 L 1180.0 593.2 C 882.4 593.2, 857.6 428.7, 560.0 428.7 Z" fill="#06b6d4" opacity="0.38"><title>Smartphones -&gt; Transsion: ~$46.8B</title></path>
    <path d="M 560.0 428.7 C 857.6 428.7, 882.4 617.9, 1180.0 617.9 L 1180.0 622.6 C 882.4 622.6, 857.6 433.4, 560.0 433.4 Z" fill="#06b6d4" opacity="0.38"><title>Smartphones -&gt; Oppo: ~$44.2B</title></path>
    <path d="M 560.0 433.4 C 857.6 433.4, 882.4 646.8, 1180.0 646.8 L 1180.0 649.6 C 882.4 649.6, 857.6 436.1, 560.0 436.1 Z" fill="#06b6d4" opacity="0.38"><title>Smartphones -&gt; Huawei: ~$26.0B</title></path>
    <path d="M 560.0 436.1 C 857.6 436.1, 882.4 755.8, 1180.0 755.8 L 1180.0 767.5 C 882.4 767.5, 857.6 447.8, 560.0 447.8 Z" fill="#06b6d4" opacity="0.38"><title>Smartphones -&gt; Other Industry Players: ~$111.8B</title></path>
    <path d="M 560.0 459.8 C 857.6 459.8, 882.4 136.1, 1180.0 136.1 L 1180.0 136.9 C 882.4 136.9, 857.6 460.6, 560.0 460.6 Z" fill="#84cc16" opacity="0.38"><title>B2B E-commerce -&gt; Alibaba Group: ~$7.5B</title></path>
    <path d="M 560.0 460.6 C 857.6 460.6, 882.4 181.1, 1180.0 181.1 L 1180.0 181.4 C 882.4 181.4, 857.6 460.9, 560.0 460.9 Z" fill="#84cc16" opacity="0.38"><title>B2B E-commerce -&gt; Amazon: ~$2.5B</title></path>
    <path d="M 560.0 460.9 C 857.6 460.9, 882.4 767.5, 1180.0 767.5 L 1180.0 818.9 C 882.4 818.9, 857.6 512.3, 560.0 512.3 Z" fill="#84cc16" opacity="0.38"><title>B2B E-commerce -&gt; Other Industry Players: ~$490.0B</title></path>
    <path d="M 560.0 524.3 C 857.6 524.3, 882.4 224.1, 1180.0 224.1 L 1180.0 225.7 C 882.4 225.7, 857.6 525.8, 560.0 525.8 Z" fill="#f97316" opacity="0.38"><title>SaaS -&gt; Alphabet (Google): ~$14.6B</title></path>
    <path d="M 560.0 525.8 C 857.6 525.8, 882.4 245.1, 1180.0 245.1 L 1180.0 254.3 C 882.4 254.3, 857.6 535.0, 560.0 535.0 Z" fill="#f97316" opacity="0.38"><title>SaaS -&gt; Microsoft: ~$87.8B</title></path>
    <path d="M 560.0 535.0 C 857.6 535.0, 882.4 494.2, 1180.0 494.2 L 1180.0 495.0 C 882.4 495.0, 857.6 535.8, 560.0 535.8 Z" fill="#f97316" opacity="0.38"><title>SaaS -&gt; Shopify: ~$7.3B</title></path>
    <path d="M 560.0 535.8 C 857.6 535.8, 882.4 556.8, 1180.0 556.8 L 1180.0 563.2 C 882.4 563.2, 857.6 542.2, 560.0 542.2 Z" fill="#f97316" opacity="0.38"><title>SaaS -&gt; Salesforce: ~$61.0B</title></path>
    <path d="M 560.0 542.2 C 857.6 542.2, 882.4 818.9, 1180.0 818.9 L 1180.0 852.2 C 882.4 852.2, 857.6 575.5, 560.0 575.5 Z" fill="#f97316" opacity="0.38"><title>SaaS -&gt; Other Industry Players: ~$317.2B</title></path>
    <path d="M 560.0 587.5 C 857.6 587.5, 882.4 374.9, 1180.0 374.9 L 1180.0 381.3 C 882.4 381.3, 857.6 593.9, 560.0 593.9 Z" fill="#eab308" opacity="0.38"><title>General Semiconductors -&gt; Samsung: ~$61.1B</title></path>
    <path d="M 560.0 593.9 C 857.6 593.9, 882.4 573.2, 1180.0 573.2 L 1180.0 578.1 C 882.4 578.1, 857.6 598.8, 560.0 598.8 Z" fill="#eab308" opacity="0.38"><title>General Semiconductors -&gt; Intel: ~$47.0B</title></path>
    <path d="M 560.0 598.8 C 857.6 598.8, 882.4 852.2, 1180.0 852.2 L 1180.0 890.2 C 882.4 890.2, 857.6 636.8, 560.0 636.8 Z" fill="#eab308" opacity="0.38"><title>General Semiconductors -&gt; Other Industry Players: ~$361.9B</title></path>
    <path d="M 560.0 648.8 C 857.6 648.8, 882.4 136.9, 1180.0 136.9 L 1180.0 138.6 C 882.4 138.6, 857.6 650.5, 560.0 650.5 Z" fill="#10b981" opacity="0.38"><title>Cloud Infrastructure -&gt; Alibaba Group: ~$16.4B</title></path>
    <path d="M 560.0 650.5 C 857.6 650.5, 882.4 181.4, 1180.0 181.4 L 1180.0 193.9 C 882.4 193.9, 857.6 663.0, 560.0 663.0 Z" fill="#10b981" opacity="0.38"><title>Cloud Infrastructure -&gt; Amazon: ~$118.9B</title></path>
    <path d="M 560.0 663.0 C 857.6 663.0, 882.4 225.7, 1180.0 225.7 L 1180.0 231.3 C 882.4 231.3, 857.6 668.6, 560.0 668.6 Z" fill="#10b981" opacity="0.38"><title>Cloud Infrastructure -&gt; Alphabet (Google): ~$53.3B</title></path>
    <path d="M 560.0 668.6 C 857.6 668.6, 882.4 254.3, 1180.0 254.3 L 1180.0 262.9 C 882.4 262.9, 857.6 677.2, 560.0 677.2 Z" fill="#10b981" opacity="0.38"><title>Cloud Infrastructure -&gt; Microsoft: ~$82.0B</title></path>
    <path d="M 560.0 677.2 C 857.6 677.2, 882.4 541.5, 1180.0 541.5 L 1180.0 542.6 C 882.4 542.6, 857.6 678.2, 560.0 678.2 Z" fill="#10b981" opacity="0.38"><title>Cloud Infrastructure -&gt; Tencent: ~$10.2B</title></path>
    <path d="M 560.0 678.2 C 857.6 678.2, 882.4 649.6, 1180.0 649.6 L 1180.0 650.6 C 882.4 650.6, 857.6 679.3, 560.0 679.3 Z" fill="#10b981" opacity="0.38"><title>Cloud Infrastructure -&gt; Huawei: ~$10.2B</title></path>
    <path d="M 560.0 679.3 C 857.6 679.3, 882.4 890.2, 1180.0 890.2 L 1180.0 902.6 C 882.4 902.6, 857.6 691.8, 560.0 691.8 Z" fill="#10b981" opacity="0.38"><title>Cloud Infrastructure -&gt; Other Industry Players: ~$118.9B</title></path>
    <path d="M 560.0 703.8 C 857.6 703.8, 882.4 231.3, 1180.0 231.3 L 1180.0 232.4 C 882.4 232.4, 857.6 705.0, 560.0 705.0 Z" fill="#f59e0b" opacity="0.38"><title>Gaming -&gt; Alphabet (Google): ~$11.2B</title></path>
    <path d="M 560.0 705.0 C 857.6 705.0, 882.4 262.9, 1180.0 262.9 L 1180.0 265.8 C 882.4 265.8, 857.6 707.9, 560.0 707.9 Z" fill="#f59e0b" opacity="0.38"><title>Gaming -&gt; Microsoft: ~$28.1B</title></path>
    <path d="M 560.0 707.9 C 857.6 707.9, 882.4 431.0, 1180.0 431.0 L 1180.0 432.7 C 882.4 432.7, 857.6 709.7, 560.0 709.7 Z" fill="#f59e0b" opacity="0.38"><title>Gaming -&gt; Apple: ~$16.9B</title></path>
    <path d="M 560.0 709.7 C 857.6 709.7, 882.4 542.6, 1180.0 542.6 L 1180.0 546.4 C 882.4 546.4, 857.6 713.5, 560.0 713.5 Z" fill="#f59e0b" opacity="0.38"><title>Gaming -&gt; Tencent: ~$36.0B</title></path>
    <path d="M 560.0 713.5 C 857.6 713.5, 882.4 902.6, 1180.0 902.6 L 1180.0 916.6 C 882.4 916.6, 857.6 727.4, 560.0 727.4 Z" fill="#f59e0b" opacity="0.38"><title>Gaming -&gt; Other Industry Players: ~$132.7B</title></path>
    <path d="M 560.0 739.4 C 857.6 739.4, 882.4 265.8, 1180.0 265.8 L 1180.0 266.1 C 882.4 266.1, 857.6 739.6, 560.0 739.6 Z" fill="#ec4899" opacity="0.38"><title>PC Hardware -&gt; Microsoft: ~$2.2B</title></path>
    <path d="M 560.0 739.6 C 857.6 739.6, 882.4 381.3, 1180.0 381.3 L 1180.0 381.9 C 882.4 381.9, 857.6 740.2, 560.0 740.2 Z" fill="#ec4899" opacity="0.38"><title>PC Hardware -&gt; Samsung: ~$5.5B</title></path>
    <path d="M 560.0 740.2 C 857.6 740.2, 882.4 432.7, 1180.0 432.7 L 1180.0 434.8 C 882.4 434.8, 857.6 742.3, 560.0 742.3 Z" fill="#ec4899" opacity="0.38"><title>PC Hardware -&gt; Apple: ~$19.8B</title></path>
    <path d="M 560.0 742.3 C 857.6 742.3, 882.4 524.2, 1180.0 524.2 L 1180.0 529.8 C 882.4 529.8, 857.6 747.8, 560.0 747.8 Z" fill="#ec4899" opacity="0.38"><title>PC Hardware -&gt; Lenovo: ~$52.8B</title></path>
    <path d="M 560.0 747.8 C 857.6 747.8, 882.4 603.2, 1180.0 603.2 L 1180.0 607.9 C 882.4 607.9, 857.6 752.6, 560.0 752.6 Z" fill="#ec4899" opacity="0.38"><title>PC Hardware -&gt; HP Inc.: ~$45.1B</title></path>
    <path d="M 560.0 752.6 C 857.6 752.6, 882.4 650.6, 1180.0 650.6 L 1180.0 651.1 C 882.4 651.1, 857.6 753.0, 560.0 753.0 Z" fill="#ec4899" opacity="0.38"><title>PC Hardware -&gt; Huawei: ~$4.4B</title></path>
    <path d="M 560.0 753.0 C 857.6 753.0, 882.4 916.6, 1180.0 916.6 L 1180.0 926.0 C 882.4 926.0, 857.6 762.5, 560.0 762.5 Z" fill="#ec4899" opacity="0.38"><title>PC Hardware -&gt; Other Industry Players: ~$90.2B</title></path>
    <path d="M 560.0 774.5 C 857.6 774.5, 882.4 445.2, 1180.0 445.2 L 1180.0 456.4 C 882.4 456.4, 857.6 785.7, 560.0 785.7 Z" fill="#a855f7" opacity="0.38"><title>AI Chips &amp; GPUs -&gt; Nvidia: ~$106.6B</title></path>
    <path d="M 560.0 785.7 C 857.6 785.7, 882.4 578.1, 1180.0 578.1 L 1180.0 578.3 C 882.4 578.3, 857.6 785.8, 560.0 785.8 Z" fill="#a855f7" opacity="0.38"><title>AI Chips &amp; GPUs -&gt; Intel: ~$1.3B</title></path>
    <path d="M 560.0 785.8 C 857.6 785.8, 882.4 926.0, 1180.0 926.0 L 1180.0 928.3 C 882.4 928.3, 857.6 788.1, 560.0 788.1 Z" fill="#a855f7" opacity="0.38"><title>AI Chips &amp; GPUs -&gt; Other Industry Players: ~$22.1B</title></path>
    <path d="M 560.0 800.1 C 857.6 800.1, 882.4 193.9, 1180.0 193.9 L 1180.0 195.3 C 882.4 195.3, 857.6 801.6, 560.0 801.6 Z" fill="#14b8a6" opacity="0.38"><title>Streaming Video -&gt; Amazon: ~$13.8B</title></path>
    <path d="M 560.0 801.6 C 857.6 801.6, 882.4 434.8, 1180.0 434.8 L 1180.0 435.2 C 882.4 435.2, 857.6 801.9, 560.0 801.9 Z" fill="#14b8a6" opacity="0.38"><title>Streaming Video -&gt; Apple: ~$3.6B</title></path>
    <path d="M 560.0 801.9 C 857.6 801.9, 882.4 546.4, 1180.0 546.4 L 1180.0 546.8 C 882.4 546.8, 857.6 802.4, 560.0 802.4 Z" fill="#14b8a6" opacity="0.38"><title>Streaming Video -&gt; Tencent: ~$4.2B</title></path>
    <path d="M 560.0 802.4 C 857.6 802.4, 882.4 632.6, 1180.0 632.6 L 1180.0 636.8 C 882.4 636.8, 857.6 806.7, 560.0 806.7 Z" fill="#14b8a6" opacity="0.38"><title>Streaming Video -&gt; Netflix: ~$40.8B</title></path>
    <path d="M 560.0 806.7 C 857.6 806.7, 882.4 928.3, 1180.0 928.3 L 1180.0 934.4 C 882.4 934.4, 857.6 812.7, 560.0 812.7 Z" fill="#14b8a6" opacity="0.38"><title>Streaming Video -&gt; Other Industry Players: ~$57.6B</title></path>
    <path d="M 560.0 824.7 C 857.6 824.7, 882.4 195.3, 1180.0 195.3 L 1180.0 195.8 C 882.4 195.8, 857.6 825.2, 560.0 825.2 Z" fill="#0ea5e9" opacity="0.38"><title>Physical AI &amp; Robotics -&gt; Amazon: ~$4.6B</title></path>
    <path d="M 560.0 825.2 C 857.6 825.2, 882.4 934.4, 1180.0 934.4 L 1180.0 940.7 C 882.4 940.7, 857.6 831.5, 560.0 831.5 Z" fill="#0ea5e9" opacity="0.38"><title>Physical AI &amp; Robotics -&gt; Other Industry Players: ~$60.4B</title></path>
    <path d="M 560.0 843.5 C 857.6 843.5, 882.4 232.4, 1180.0 232.4 L 1180.0 233.6 C 882.4 233.6, 857.6 844.7, 560.0 844.7 Z" fill="#38bdf8" opacity="0.38"><title>Generative AI &amp; Foundation Models -&gt; Alphabet (Google): ~$11.1B</title></path>
    <path d="M 560.0 844.7 C 857.6 844.7, 882.4 940.7, 1180.0 940.7 L 1180.0 945.9 C 882.4 945.9, 857.6 849.8, 560.0 849.8 Z" fill="#38bdf8" opacity="0.38"><title>Generative AI &amp; Foundation Models -&gt; Other Industry Players: ~$48.9B</title></path>
    <path d="M 560.0 861.8 C 857.6 861.8, 882.4 945.9, 1180.0 945.9 L 1180.0 949.8 C 882.4 949.8, 857.6 865.8, 560.0 865.8 Z" fill="#64748b" opacity="0.38"><title>Web3 &amp; Blockchain Infrastructure -&gt; Other Industry Players: ~$38.0B</title></path>
    <path d="M 560.0 877.8 C 857.6 877.8, 882.4 233.6, 1180.0 233.6 L 1180.0 233.6 C 882.4 233.6, 857.6 877.8, 560.0 877.8 Z" fill="#d946ef" opacity="0.38"><title>Quantum Computing -&gt; Alphabet (Google): ~$0.1B</title></path>
    <path d="M 560.0 877.8 C 857.6 877.8, 882.4 949.8, 1180.0 949.8 L 1180.0 950.0 C 882.4 950.0, 857.6 878.0, 560.0 878.0 Z" fill="#d946ef" opacity="0.38"><title>Quantum Computing -&gt; Other Industry Players: ~$1.5B</title></path>
  </g>
  <g transform="translate(30, 210.0)">
    <rect width="20" height="620.0" rx="4" fill="#38bdf8" />
    <text x="30" y="303.0" fill="#f8fafc" font-size="12" font-weight="600">All Sectors</text>
    <text x="30" y="319.0" fill="#94a3b8" font-size="10.5">~$5.91T</text>
  </g>
  <g transform="translate(540, 90.0)">
    <rect width="20" height="209.8" rx="3" fill="#6366f1" />
    <text x="-10" y="101.9" text-anchor="end" fill="#f8fafc" font-size="12" font-weight="600">B2C E-commerce</text>
    <text x="-10" y="115.9" text-anchor="end" fill="#94a3b8" font-size="10.5">~$2.00T</text>
  </g>
  <g transform="translate(540, 311.8)">
    <rect width="20" height="69.5" rx="3" fill="#8b5cf6" />
    <text x="-10" y="31.7" text-anchor="end" fill="#f8fafc" font-size="12" font-weight="600">Digital Advertising</text>
    <text x="-10" y="45.7" text-anchor="end" fill="#94a3b8" font-size="10.5">~$662B</text>
  </g>
  <g transform="translate(540, 393.3)">
    <rect width="20" height="54.6" rx="3" fill="#06b6d4" />
    <text x="-10" y="24.3" text-anchor="end" fill="#f8fafc" font-size="12" font-weight="600">Smartphones</text>
    <text x="-10" y="38.3" text-anchor="end" fill="#94a3b8" font-size="10.5">~$520B</text>
  </g>
  <g transform="translate(540, 459.8)">
    <rect width="20" height="52.5" rx="3" fill="#84cc16" />
    <text x="-10" y="23.2" text-anchor="end" fill="#f8fafc" font-size="12" font-weight="600">B2B E-commerce</text>
    <text x="-10" y="37.2" text-anchor="end" fill="#94a3b8" font-size="10.5">~$500B</text>
  </g>
  <g transform="translate(540, 524.3)">
    <rect width="20" height="51.2" rx="3" fill="#f97316" />
    <text x="-10" y="22.6" text-anchor="end" fill="#f8fafc" font-size="12" font-weight="600">SaaS</text>
    <text x="-10" y="36.6" text-anchor="end" fill="#94a3b8" font-size="10.5">~$488B</text>
  </g>
  <g transform="translate(540, 587.5)">
    <rect width="20" height="49.3" rx="3" fill="#eab308" />
    <text x="-10" y="21.7" text-anchor="end" fill="#f8fafc" font-size="12" font-weight="600">General Semiconductors</text>
    <text x="-10" y="35.7" text-anchor="end" fill="#94a3b8" font-size="10.5">~$470B</text>
  </g>
  <g transform="translate(540, 648.8)">
    <rect width="20" height="43.0" rx="3" fill="#10b981" />
    <text x="-10" y="18.5" text-anchor="end" fill="#f8fafc" font-size="12" font-weight="600">Cloud Infrastructure</text>
    <text x="-10" y="32.5" text-anchor="end" fill="#94a3b8" font-size="10.5">~$410B</text>
  </g>
  <g transform="translate(540, 703.8)">
    <rect width="20" height="23.6" rx="3" fill="#f59e0b" />
    <text x="-10" y="8.8" text-anchor="end" fill="#f8fafc" font-size="12" font-weight="600">Gaming</text>
    <text x="-10" y="22.8" text-anchor="end" fill="#94a3b8" font-size="10.5">~$225B</text>
  </g>
  <g transform="translate(540, 739.4)">
    <rect width="20" height="23.1" rx="3" fill="#ec4899" />
    <text x="-10" y="8.5" text-anchor="end" fill="#f8fafc" font-size="12" font-weight="600">PC Hardware</text>
    <text x="-10" y="22.5" text-anchor="end" fill="#94a3b8" font-size="10.5">~$220B</text>
  </g>
  <g transform="translate(540, 774.5)">
    <rect width="20" height="13.6" rx="3" fill="#a855f7" />
    <text x="-10" y="10.8" text-anchor="end" fill="#f8fafc" font-size="12" font-weight="600">AI Chips &amp; GPUs <tspan fill="#94a3b8" font-size="10.5">(~$130B)</tspan></text>
  </g>
  <g transform="translate(540, 800.1)">
    <rect width="20" height="12.6" rx="3" fill="#14b8a6" />
    <text x="-10" y="10.3" text-anchor="end" fill="#f8fafc" font-size="12" font-weight="600">Streaming Video <tspan fill="#94a3b8" font-size="10.5">(~$120B)</tspan></text>
  </g>
  <g transform="translate(540, 824.7)">
    <rect width="20" height="6.8" rx="3" fill="#0ea5e9" />
    <text x="-10" y="7.4" text-anchor="end" fill="#f8fafc" font-size="12" font-weight="600">Physical AI &amp; Robotics <tspan fill="#94a3b8" font-size="10.5">(~$65B)</tspan></text>
  </g>
  <g transform="translate(540, 843.5)">
    <rect width="20" height="6.3" rx="3" fill="#38bdf8" />
    <text x="-10" y="7.1" text-anchor="end" fill="#f8fafc" font-size="12" font-weight="600">Generative AI &amp; Foundation Models <tspan fill="#94a3b8" font-size="10.5">(~$60B)</tspan></text>
  </g>
  <g transform="translate(540, 861.8)">
    <rect width="20" height="4.0" rx="3" fill="#64748b" />
    <text x="-10" y="6.0" text-anchor="end" fill="#f8fafc" font-size="12" font-weight="600">Web3 &amp; Blockchain Infrastructure <tspan fill="#94a3b8" font-size="10.5">(~$38B)</tspan></text>
  </g>
  <g transform="translate(540, 877.8)">
    <rect width="20" height="0.2" rx="3" fill="#d946ef" />
    <text x="-10" y="4.1" text-anchor="end" fill="#f8fafc" font-size="12" font-weight="600">Quantum Computing <tspan fill="#94a3b8" font-size="10.5">(~$1.8B)</tspan></text>
  </g>
  <g transform="translate(1180, 90.0)">
    <rect width="20" height="48.6" rx="3" fill="#f97316" />
    <text x="30" y="22.3" fill="#f8fafc" font-size="12" font-weight="600">Alibaba Group</text>
    <text x="30" y="35.3" fill="#94a3b8" font-size="10.5">~$464B</text>
  </g>
  <g transform="translate(1180, 148.6)">
    <rect width="20" height="47.1" rx="3" fill="#38bdf8" />
    <text x="30" y="21.6" fill="#f8fafc" font-size="12" font-weight="600">Amazon</text>
    <text x="30" y="34.6" fill="#94a3b8" font-size="10.5">~$449B</text>
  </g>
  <g transform="translate(1180, 205.8)">
    <rect width="20" height="27.8" rx="3" fill="#8b5cf6" />
    <text x="30" y="11.9" fill="#f8fafc" font-size="12" font-weight="600">Alphabet (Google)</text>
    <text x="30" y="24.9" fill="#94a3b8" font-size="10.5">~$265B</text>
  </g>
  <g transform="translate(1180, 243.6)">
    <rect width="20" height="22.5" rx="3" fill="#10b981" />
    <text x="30" y="9.2" fill="#f8fafc" font-size="12" font-weight="600">Microsoft</text>
    <text x="30" y="22.2" fill="#94a3b8" font-size="10.5">~$214B</text>
  </g>
  <g transform="translate(1180, 276.1)">
    <rect width="20" height="22.0" rx="3" fill="#f59e0b" />
    <text x="30" y="9.0" fill="#f8fafc" font-size="12" font-weight="600">PDD Holdings</text>
    <text x="30" y="22.0" fill="#94a3b8" font-size="10.5">~$210B</text>
  </g>
  <g transform="translate(1180, 308.1)">
    <rect width="20" height="18.6" rx="3" fill="#ec4899" />
    <text x="30" y="7.3" fill="#f8fafc" font-size="12" font-weight="600">Meta</text>
    <text x="30" y="20.3" fill="#94a3b8" font-size="10.5">~$177B</text>
  </g>
  <g transform="translate(1180, 336.7)">
    <rect width="20" height="17.8" rx="3" fill="#06b6d4" />
    <text x="30" y="12.9" fill="#f8fafc" font-size="12" font-weight="600">JD.com <tspan fill="#94a3b8" font-size="10.5">(~$170B)</tspan></text>
  </g>
  <g transform="translate(1180, 364.6)">
    <rect width="20" height="17.4" rx="3" fill="#a855f7" />
    <text x="30" y="12.7" fill="#f8fafc" font-size="12" font-weight="600">Samsung <tspan fill="#94a3b8" font-size="10.5">(~$165B)</tspan></text>
  </g>
  <g transform="translate(1180, 391.9)">
    <rect width="20" height="17.0" rx="3" fill="#84cc16" />
    <text x="30" y="12.5" fill="#f8fafc" font-size="12" font-weight="600">ByteDance <tspan fill="#94a3b8" font-size="10.5">(~$162B)</tspan></text>
  </g>
  <g transform="translate(1180, 418.9)">
    <rect width="20" height="16.2" rx="3" fill="#6366f1" />
    <text x="30" y="12.1" fill="#f8fafc" font-size="12" font-weight="600">Apple <tspan fill="#94a3b8" font-size="10.5">(~$155B)</tspan></text>
  </g>
  <g transform="translate(1180, 445.2)">
    <rect width="20" height="11.2" rx="3" fill="#eab308" />
    <text x="30" y="9.6" fill="#f8fafc" font-size="12" font-weight="600">Nvidia <tspan fill="#94a3b8" font-size="10.5">(~$107B)</tspan></text>
  </g>
  <g transform="translate(1180, 466.4)">
    <rect width="20" height="9.4" rx="3" fill="#14b8a6" />
    <text x="30" y="8.7" fill="#f8fafc" font-size="12" font-weight="600">Meituan <tspan fill="#94a3b8" font-size="10.5">(~$90B)</tspan></text>
  </g>
  <g transform="translate(1180, 485.8)">
    <rect width="20" height="9.2" rx="3" fill="#f43f5e" />
    <text x="30" y="8.6" fill="#f8fafc" font-size="12" font-weight="600">Shopify <tspan fill="#94a3b8" font-size="10.5">(~$87B)</tspan></text>
  </g>
  <g transform="translate(1180, 505.0)">
    <rect width="20" height="7.6" rx="3" fill="#22d3ee" />
    <text x="30" y="7.8" fill="#f8fafc" font-size="12" font-weight="600">Xiaomi <tspan fill="#94a3b8" font-size="10.5">(~$73B)</tspan></text>
  </g>
  <g transform="translate(1180, 522.6)">
    <rect width="20" height="7.2" rx="3" fill="#e11d48" />
    <text x="30" y="7.6" fill="#f8fafc" font-size="12" font-weight="600">Lenovo <tspan fill="#94a3b8" font-size="10.5">(~$68B)</tspan></text>
  </g>
  <g transform="translate(1180, 539.8)">
    <rect width="20" height="7.0" rx="3" fill="#10b981" />
    <text x="30" y="7.5" fill="#f8fafc" font-size="12" font-weight="600">Tencent <tspan fill="#94a3b8" font-size="10.5">(~$67B)</tspan></text>
  </g>
  <g transform="translate(1180, 556.8)">
    <rect width="20" height="6.4" rx="3" fill="#3b82f6" />
    <text x="30" y="7.2" fill="#f8fafc" font-size="12" font-weight="600">Salesforce <tspan fill="#94a3b8" font-size="10.5">(~$61B)</tspan></text>
  </g>
  <g transform="translate(1180, 573.2)">
    <rect width="20" height="5.1" rx="3" fill="#f97316" />
    <text x="30" y="6.5" fill="#f8fafc" font-size="12" font-weight="600">Intel <tspan fill="#94a3b8" font-size="10.5">(~$48B)</tspan></text>
  </g>
  <g transform="translate(1180, 588.3)">
    <rect width="20" height="4.9" rx="3" fill="#8b5cf6" />
    <text x="30" y="6.5" fill="#f8fafc" font-size="12" font-weight="600">Transsion <tspan fill="#94a3b8" font-size="10.5">(~$47B)</tspan></text>
  </g>
  <g transform="translate(1180, 603.2)">
    <rect width="20" height="4.7" rx="3" fill="#f97316" />
    <text x="30" y="6.4" fill="#f8fafc" font-size="12" font-weight="600">HP Inc. <tspan fill="#94a3b8" font-size="10.5">(~$45B)</tspan></text>
  </g>
  <g transform="translate(1180, 617.9)">
    <rect width="20" height="4.6" rx="3" fill="#38bdf8" />
    <text x="30" y="6.3" fill="#f8fafc" font-size="12" font-weight="600">Oppo <tspan fill="#94a3b8" font-size="10.5">(~$44B)</tspan></text>
  </g>
  <g transform="translate(1180, 632.6)">
    <rect width="20" height="4.3" rx="3" fill="#8b5cf6" />
    <text x="30" y="6.1" fill="#f8fafc" font-size="12" font-weight="600">Netflix <tspan fill="#94a3b8" font-size="10.5">(~$41B)</tspan></text>
  </g>
  <g transform="translate(1180, 646.8)">
    <rect width="20" height="4.3" rx="3" fill="#10b981" />
    <text x="30" y="6.1" fill="#f8fafc" font-size="12" font-weight="600">Huawei <tspan fill="#94a3b8" font-size="10.5">(~$41B)</tspan></text>
  </g>
  <g transform="translate(1180, 661.1)">
    <rect width="20" height="4.2" rx="3" fill="#f59e0b" />
    <text x="30" y="6.1" fill="#f8fafc" font-size="12" font-weight="600">Walmart Online <tspan fill="#94a3b8" font-size="10.5">(~$40B)</tspan></text>
  </g>
  <g transform="translate(1180, 675.3)">
    <rect width="20" height="274.7" rx="3" fill="#475569" />
    <text x="30" y="135.4" fill="#f8fafc" font-size="12" font-weight="600">Other Industry Players</text>
    <text x="30" y="148.4" fill="#94a3b8" font-size="10.5">~$2.62T</text>
  </g>
</svg>
